#!OML:ASF H:\Dans Jumps\Project 1\Capture day 1\Session 1\subject.ASF
:FULLY-SPECIFIED
:DEGREES
182
root 0.09936 15.7788 -15.9871 18.7183 -1.76596 -1.14083
lowerback 19.953 0.0296732 -0.131166
upperback 10.3568 0.0421709 1.83924
thorax 0.01973 -0.0462183 2.01555
lowerneck -17.0592 1.07472 -0.85833
upperneck 19.4113 2.10137 -1.77953
head 8.91121 0.719922 -0.200831
rclavicle -9.14409e-015 -3.97569e-016
rhumerus -44.4581 -18.9681 -65.2562
rradius 22.8076
rwrist 34.206
rhand -19.1716 -23.9898
rfingers 7.12502
rthumb 7.13952 -53.8494
lclavicle -9.14409e-015 -3.97569e-016
lhumerus -38.3964 3.25347 80.7764
lradius 16.739
lwrist 11.9846
lhand -27.2188 -5.54723
lfingers 7.12502
lthumb -0.631435 24.4316
rfemur -57.946 -3.2175 19.4577
rtibia 61.6679
rfoot -21.355 -3.05334
rtoes 0.237027
lfemur -57.1472 6.97319 -21.9436
ltibia 61.1779
lfoot -19.7179 9.90272
ltoes -0.549927
183
root 0.103088 15.7194 -16.0165 18.8973 -1.77978 -1.10869
lowerback 20.2774 0.0493933 -0.160467
upperback 10.4203 0.0641778 1.84628
thorax -0.0749564 -0.0368494 2.03722
lowerneck -17.1401 1.06465 -0.851031
upperneck 19.0767 2.08863 -1.82149
head 8.81172 0.713911 -0.217845
rclavicle 3.97569e-016 -1.17283e-014
rhumerus -45.0087 -19.0932 -64.7925
rradius 22.6556
rwrist 34.4587
rhand -19.1336 -23.9476
rfingers 7.12502
rthumb 7.17619 -53.8059
lclavicle 3.97569e-016 -1.17283e-014
lhumerus -38.8579 3.5193 80.5111
lradius 16.5318
lwrist 11.5867
lhand -27.1431 -5.57161
lfingers 7.12502
lthumb -0.558268 24.4074
rfemur -58.6997 -3.223 19.4234
rtibia 62.3318
rfoot -21.4372 -3.13649
rtoes 0.00492242
lfemur -57.8813 6.89051 -22.0102
ltibia 61.8287
lfoot -19.7697 10.0287
ltoes -0.615276
184
root 0.106609 15.6577 -16.0457 19.0742 -1.79163 -1.07661
lowerback 20.6035 0.0705685 -0.191891
upperback 10.4745 0.0876757 1.85436
thorax -0.179978 -0.0267223 2.0608
lowerneck -17.2173 1.05188 -0.847436
upperneck 18.7564 2.07153 -1.85562
head 8.71658 0.706301 -0.23208
rclavicle -1.98785e-015 1.59028e-014
rhumerus -45.5832 -19.2048 -64.32
rradius 22.5242
rwrist 34.6714
rhand -19.082 -23.9108
rfingers 7.12502
rthumb 7.22604 -53.7674
lclavicle -1.98785e-015 1.59028e-014
lhumerus -39.3416 3.78093 80.2403
lradius 16.3396
lwrist 11.2561
lhand -27.2576 -5.74913
lfingers 7.12502
lthumb -0.668854 24.2296
rfemur -59.4654 -3.23246 19.3896
rtibia 63.0201
rfoot -21.5312 -3.20852
rtoes -0.182434
lfemur -58.6279 6.80513 -22.0746
ltibia 62.5025
lfoot -19.8282 10.1587
ltoes -0.673738
185
root 0.109958 15.5939 -16.0747 19.2529 -1.80905 -1.04816
lowerback 20.9268 0.0931377 -0.229963
upperback 10.5188 0.111728 1.86514
thorax -0.29393 -0.01654 2.0908
lowerneck -17.2684 1.03897 -0.862713
upperneck 18.4317 2.05559 -1.87604
head 8.61514 0.699616 -0.238511
rclavicle 1.39149e-015 6.75868e-015
rhumerus -46.1736 -19.2788 -63.854
rradius 22.4201
rwrist 34.8363
rhand -19.009 -23.8872
rfingers 7.12502
rthumb 7.2965 -53.7413
lclavicle 1.39149e-015 6.75868e-015
lhumerus -39.8518 4.07117 79.9483
lradius 16.1697
lwrist 10.9706
lhand -27.543 -5.95419
lfingers 7.12502
lthumb -0.944548 24.0235
rfemur -60.2982 -3.23798 19.3585
rtibia 63.8874
rfoot -21.7373 -3.29313
rtoes -0.340743
lfemur -59.4439 6.72285 -22.1354
ltibia 63.3609
lfoot -19.9952 10.3337
ltoes -0.755812
186
root 0.113144 15.5281 -16.1033 19.4343 -1.82721 -1.02074
lowerback 21.2418 0.115951 -0.268686
upperback 10.5546 0.13577 1.87558
thorax -0.412394 -0.00626647 2.12066
lowerneck -17.3123 1.02748 -0.880001
upperneck 18.1153 2.04114 -1.89198
head 8.51551 0.693937 -0.242922
rclavicle 1.78906e-015 -6.36111e-015
rhumerus -46.7867 -19.344 -63.3723
rradius 22.3297
rwrist 34.9929
rhand -18.9358 -23.8371
rfingers 7.12502
rthumb 7.36709 -53.6888
lclavicle 1.78906e-015 -6.36111e-015
lhumerus -40.388 4.34755 79.6545
lradius 16.0105
lwrist 10.7531
lhand -28.0798 -6.29999
lfingers 7.12502
lthumb -1.46298 23.6747
rfemur -61.1433 -3.24508 19.3275
rtibia 64.7727
rfoot -21.9533 -3.3618
rtoes -0.434258
lfemur -60.2744 6.64091 -22.1953
ltibia 64.2374
lfoot -20.1654 10.5161
ltoes -0.856218
187
root 0.116142 15.4604 -16.1315 19.6145 -1.84286 -0.993978
lowerback 21.5508 0.137005 -0.306622
upperback 10.5852 0.157489 1.88565
thorax -0.533059 0.00298574 2.15003
lowerneck -17.3456 1.01606 -0.907604
upperneck 17.798 2.02698 -1.89719
head 8.41376 0.688944 -0.242036
rclavicle 1.98785e-016 4.77083e-015
rhumerus -47.4175 -19.3949 -62.88
rradius 22.2488
rwrist 35.1295
rhand -18.8835 -23.7488
rfingers 7.12502
rthumb 7.41759 -53.5988
lclavicle 1.98785e-016 4.77083e-015
lhumerus -40.9487 4.61236 79.3565
lradius 15.8607
lwrist 10.5977
lhand -28.6947 -6.70812
lfingers 7.12502
lthumb -2.05689 23.2617
rfemur -61.9949 -3.25656 19.2984
rtibia 65.6729
rfoot -22.1761 -3.42453
rtoes -0.504248
lfemur -61.114 6.55763 -22.2536
ltibia 65.1307
lfoot -20.3395 10.7049
ltoes -0.981716
188
root 0.119027 15.3907 -16.1591 19.7933 -1.8586 -0.969274
lowerback 21.8512 0.15763 -0.344481
upperback 10.6149 0.178407 1.89688
thorax -0.64993 0.0118204 2.18066
lowerneck -17.3841 1.00562 -0.941163
upperneck 17.4825 2.01479 -1.89733
head 8.3137 0.684992 -0.238213
rclavicle -2.5842e-015 -1.13307e-014
rhumerus -48.0585 -19.424 -62.3818
rradius 22.1785
rwrist 35.2341
rhand -18.8648 -23.6156
rfingers 7.12502
rthumb 7.43563 -53.4649
lclavicle -2.5842e-015 -1.13307e-014
lhumerus -41.5292 4.84357 79.0731
lradius 15.7238
lwrist 10.511
lhand -28.9577 -6.84513
lfingers 7.12502
lthumb -2.3109 23.1221
rfemur -62.8525 -3.27043 19.2713
rtibia 66.5865
rfoot -22.4058 -3.47834
rtoes -0.547802
lfemur -61.9619 6.47662 -22.3105
ltibia 66.0399
lfoot -20.5167 10.899
ltoes -1.12602
189
root 0.121618 15.3189 -16.1864 19.973 -1.87425 -0.94671
lowerback 22.1402 0.179047 -0.381938
upperback 10.6466 0.200053 1.90794
thorax -0.758692 0.0209945 2.21057
lowerneck -17.4371 0.995587 -0.975819
upperneck 17.1647 2.00304 -1.89439
head 8.21572 0.681484 -0.233085
rclavicle -1.15295e-014 2.20651e-014
rhumerus -48.7069 -19.4338 -61.8843
rradius 22.1171
rwrist 35.308
rhand -18.8853 -23.4476
rfingers 7.12502
rthumb 7.41585 -53.2976
lclavicle -1.15295e-014 2.20651e-014
lhumerus -42.1202 5.0315 78.8073
lradius 15.6006
lwrist 10.4899
lhand -29.2475 -7.00329
lfingers 7.12502
lthumb -2.59069 22.9607
rfemur -63.7206 -3.2846 19.247
rtibia 67.5121
rfoot -22.6364 -3.5301
rtoes -0.583794
lfemur -62.8229 6.40031 -22.3668
ltibia 66.9646
lfoot -20.6954 11.0943
ltoes -1.28148
